<svg width="60" height="60" viewBox="0 0 60 60" fill="none" xmlns="http://www.w3.org/2000/svg">
<g clip-path="url(#clip0_35_138)">
<path d="M53.4375 37.5V37.5019H52.5V28.125C53.0184 28.125 53.4375 27.7059 53.4375 27.1875V23.4375C53.4375 10.4934 42.9441 0 30 0C17.0559 0 6.5625 10.4934 6.5625 23.4375V27.1875C6.5625 27.7059 6.98156 28.125 7.5 28.125V37.5H6.5625C2.93813 37.5 0 40.4381 0 44.0625V53.4394C0 57.0628 2.93813 60.0019 6.5625 60.0019V60H11.25C13.3228 60 15 58.3228 15 56.25V41.25C15 39.8634 14.2416 38.6681 13.125 38.0203V28.125C13.6434 28.125 14.0625 27.7059 14.0625 27.1875V23.4375C14.0625 14.6353 21.1978 7.5 30 7.5C38.8022 7.5 45.9375 14.6353 45.9375 23.4375V27.1875C45.9375 27.7059 46.3566 28.125 46.875 28.125V38.0203C45.7584 38.67 45 39.8653 45 41.2519V56.2519C45 58.3247 46.6772 60.0019 48.75 60.0019H53.4375C57.0619 60.0019 60 57.0628 60 53.4394V44.0625C60 40.4381 57.0619 37.5 53.4375 37.5ZM1.875 53.4394V44.0625C1.875 41.7947 3.48656 39.9037 5.625 39.4697V58.0322C3.48563 57.5972 1.875 55.7062 1.875 53.4394ZM6.5625 58.1269C6.55969 58.1269 6.55594 58.125 6.55312 58.125H6.5625V58.1269ZM13.125 56.25C13.125 57.285 12.285 58.125 11.25 58.125H7.5V39.375H11.25C12.285 39.375 13.125 40.215 13.125 41.25V56.25ZM11.25 37.5H9.375V28.125H11.25V37.5ZM30 5.625C20.1628 5.625 12.1875 13.5994 12.1875 23.4375V26.25H8.4375V23.4375C8.4375 11.5284 18.0919 1.875 30 1.875C41.9081 1.875 51.5625 11.5284 51.5625 23.4375V26.25H47.8125V23.4375C47.8125 13.5994 39.8372 5.625 30 5.625ZM48.75 28.125H50.625V37.5019H48.75V28.125ZM48.75 58.1269C47.715 58.1269 46.875 57.2869 46.875 56.2519V41.2519C46.875 40.2159 47.715 39.3769 48.75 39.3769H52.5V58.1269H48.75ZM58.125 53.4394C58.125 55.7062 56.5134 57.5972 54.375 58.0312V39.4687C56.5144 39.9037 58.125 41.7947 58.125 44.0616V53.4394Z" fill="#394240"/>
<path d="M6.5626 58.1281L6.55322 58.125H6.5626V58.1281Z" fill="#45AAB8"/>
<path d="M30 5.625C20.1628 5.625 12.1875 13.5994 12.1875 23.4375V26.25H8.4375V23.4375C8.4375 11.5284 18.0919 1.875 30 1.875C41.9081 1.875 51.5625 11.5284 51.5625 23.4375V26.25H47.8125V23.4375C47.8125 13.5994 39.8372 5.625 30 5.625Z" fill="#F76D57"/>
<path d="M11.25 28.125H9.375V37.5H11.25V28.125Z" fill="#B4CCB9"/>
<path d="M50.625 28.125H48.75V37.5019H50.625V28.125Z" fill="#B4CCB9"/>
<path d="M1.875 44.0625V53.4394C1.875 55.7063 3.48562 57.5972 5.625 58.0313V39.4688C3.48656 39.9038 1.875 41.7947 1.875 44.0625Z" fill="#45AAB8"/>
<path d="M11.25 39.375H7.5V58.125H11.25C12.285 58.125 13.125 57.285 13.125 56.25V41.25C13.125 40.215 12.285 39.375 11.25 39.375Z" fill="#45AAB8"/>
<path d="M46.875 41.252V56.252C46.875 57.287 47.715 58.127 48.75 58.127H52.5V39.377H48.75C47.715 39.377 46.875 40.2151 46.875 41.252Z" fill="#45AAB8"/>
<path d="M54.375 39.4697V58.0322C56.5134 57.5972 58.125 55.7072 58.125 53.4403V44.0625C58.125 41.7957 56.5144 39.9038 54.375 39.4697Z" fill="#45AAB8"/>
<g opacity="0.2">
<path d="M1.875 44.0625V53.4394C1.875 55.7063 3.48562 57.5972 5.625 58.0313V39.4688C3.48656 39.9038 1.875 41.7947 1.875 44.0625Z" fill="black"/>
<path d="M54.375 39.4697V58.0322C56.5134 57.5972 58.125 55.7072 58.125 53.4403V44.0625C58.125 41.7957 56.5144 39.9038 54.375 39.4697Z" fill="black"/>
</g>
</g>
<defs>
<clipPath id="clip0_35_138">
<rect width="60" height="60" fill="white"/>
</clipPath>
</defs>
</svg>
